<mxfile host="app.diagrams.net" agent="Mozilla/5.0 (Windows NT 10.0; Win64; x64) AppleWebKit/537.36 (KHTML, like Gecko) Chrome/132.0.0.0 Safari/537.36" version="26.0.10">
  <diagram name="PÃ¡gina-1" id="u751DJCxoRMXyO-ACfFg">
    <mxGraphModel dx="733" dy="390" grid="1" gridSize="10" guides="1" tooltips="1" connect="1" arrows="1" fold="1" page="1" pageScale="1" pageWidth="827" pageHeight="1169" math="0" shadow="0">
      <root>
        <mxCell id="0" />
        <mxCell id="1" parent="0" />
        <mxCell id="DMOeyGzZ-MG1eRfctkBi-1" value="Aluno" style="rounded=0;whiteSpace=wrap;html=1;" vertex="1" parent="1">
          <mxGeometry x="170" y="280" width="120" height="60" as="geometry" />
        </mxCell>
        <mxCell id="DMOeyGzZ-MG1eRfctkBi-2" value="Professor" style="rounded=0;whiteSpace=wrap;html=1;" vertex="1" parent="1">
          <mxGeometry x="460" y="290" width="120" height="60" as="geometry" />
        </mxCell>
        <mxCell id="DMOeyGzZ-MG1eRfctkBi-3" value="Turma" style="rounded=0;whiteSpace=wrap;html=1;" vertex="1" parent="1">
          <mxGeometry x="354" y="460" width="120" height="60" as="geometry" />
        </mxCell>
        <mxCell id="DMOeyGzZ-MG1eRfctkBi-4" value="&lt;u&gt;rm&lt;/u&gt;" style="ellipse;whiteSpace=wrap;html=1;" vertex="1" parent="1">
          <mxGeometry x="90" y="300" width="80" height="20" as="geometry" />
        </mxCell>
        <mxCell id="DMOeyGzZ-MG1eRfctkBi-5" value="nome" style="ellipse;whiteSpace=wrap;html=1;" vertex="1" parent="1">
          <mxGeometry x="90" y="280" width="80" height="20" as="geometry" />
        </mxCell>
        <mxCell id="DMOeyGzZ-MG1eRfctkBi-6" value="&lt;u&gt;registro&lt;/u&gt;" style="ellipse;whiteSpace=wrap;html=1;" vertex="1" parent="1">
          <mxGeometry x="580" y="310" width="80" height="20" as="geometry" />
        </mxCell>
        <mxCell id="DMOeyGzZ-MG1eRfctkBi-7" value="nome" style="ellipse;whiteSpace=wrap;html=1;" vertex="1" parent="1">
          <mxGeometry x="580" y="290" width="80" height="20" as="geometry" />
        </mxCell>
        <mxCell id="DMOeyGzZ-MG1eRfctkBi-8" value="&lt;u&gt;numero&lt;/u&gt;" style="ellipse;whiteSpace=wrap;html=1;" vertex="1" parent="1">
          <mxGeometry x="475" y="475" width="80" height="20" as="geometry" />
        </mxCell>
        <mxCell id="DMOeyGzZ-MG1eRfctkBi-9" value="nivel" style="ellipse;whiteSpace=wrap;html=1;" vertex="1" parent="1">
          <mxGeometry x="474" y="455" width="80" height="20" as="geometry" />
        </mxCell>
        <mxCell id="DMOeyGzZ-MG1eRfctkBi-11" value="participa" style="rhombus;whiteSpace=wrap;html=1;" vertex="1" parent="1">
          <mxGeometry x="220" y="380" width="70" height="50" as="geometry" />
        </mxCell>
        <mxCell id="DMOeyGzZ-MG1eRfctkBi-12" value="" style="endArrow=none;html=1;rounded=0;entryX=0.554;entryY=1.036;entryDx=0;entryDy=0;entryPerimeter=0;exitX=0.5;exitY=0;exitDx=0;exitDy=0;" edge="1" parent="1" source="DMOeyGzZ-MG1eRfctkBi-11" target="DMOeyGzZ-MG1eRfctkBi-1">
          <mxGeometry width="50" height="50" relative="1" as="geometry">
            <mxPoint x="280" y="410" as="sourcePoint" />
            <mxPoint x="330" y="360" as="targetPoint" />
          </mxGeometry>
        </mxCell>
        <mxCell id="DMOeyGzZ-MG1eRfctkBi-13" value="" style="endArrow=none;html=1;rounded=0;entryX=0.5;entryY=1;entryDx=0;entryDy=0;exitX=0.001;exitY=0.431;exitDx=0;exitDy=0;exitPerimeter=0;" edge="1" parent="1" source="DMOeyGzZ-MG1eRfctkBi-3" target="DMOeyGzZ-MG1eRfctkBi-11">
          <mxGeometry width="50" height="50" relative="1" as="geometry">
            <mxPoint x="269" y="468" as="sourcePoint" />
            <mxPoint x="250" y="430" as="targetPoint" />
          </mxGeometry>
        </mxCell>
        <mxCell id="DMOeyGzZ-MG1eRfctkBi-14" value="1" style="text;html=1;align=center;verticalAlign=middle;resizable=0;points=[];autosize=1;strokeColor=none;fillColor=none;" vertex="1" parent="1">
          <mxGeometry x="324" y="475" width="30" height="30" as="geometry" />
        </mxCell>
        <mxCell id="DMOeyGzZ-MG1eRfctkBi-15" value="n" style="text;html=1;align=center;verticalAlign=middle;resizable=0;points=[];autosize=1;strokeColor=none;fillColor=none;" vertex="1" parent="1">
          <mxGeometry x="205" y="338" width="30" height="30" as="geometry" />
        </mxCell>
        <mxCell id="DMOeyGzZ-MG1eRfctkBi-16" value="lecionar" style="rhombus;whiteSpace=wrap;html=1;" vertex="1" parent="1">
          <mxGeometry x="484" y="380" width="70" height="50" as="geometry" />
        </mxCell>
        <mxCell id="DMOeyGzZ-MG1eRfctkBi-17" value="1" style="text;html=1;align=center;verticalAlign=middle;resizable=0;points=[];autosize=1;strokeColor=none;fillColor=none;" vertex="1" parent="1">
          <mxGeometry x="525" y="348" width="30" height="30" as="geometry" />
        </mxCell>
        <mxCell id="DMOeyGzZ-MG1eRfctkBi-18" value="n" style="text;html=1;align=center;verticalAlign=middle;resizable=0;points=[];autosize=1;strokeColor=none;fillColor=none;" vertex="1" parent="1">
          <mxGeometry x="445" y="428" width="30" height="30" as="geometry" />
        </mxCell>
        <mxCell id="DMOeyGzZ-MG1eRfctkBi-21" value="" style="endArrow=none;html=1;rounded=0;entryX=0.5;entryY=1;entryDx=0;entryDy=0;exitX=0.5;exitY=0;exitDx=0;exitDy=0;" edge="1" parent="1" source="DMOeyGzZ-MG1eRfctkBi-16" target="DMOeyGzZ-MG1eRfctkBi-2">
          <mxGeometry width="50" height="50" relative="1" as="geometry">
            <mxPoint x="340" y="400" as="sourcePoint" />
            <mxPoint x="390" y="350" as="targetPoint" />
          </mxGeometry>
        </mxCell>
        <mxCell id="DMOeyGzZ-MG1eRfctkBi-22" value="" style="endArrow=none;html=1;rounded=0;entryX=0.5;entryY=1;entryDx=0;entryDy=0;exitX=1;exitY=0;exitDx=0;exitDy=0;" edge="1" parent="1" source="DMOeyGzZ-MG1eRfctkBi-3" target="DMOeyGzZ-MG1eRfctkBi-16">
          <mxGeometry width="50" height="50" relative="1" as="geometry">
            <mxPoint x="529" y="390" as="sourcePoint" />
            <mxPoint x="530" y="360" as="targetPoint" />
          </mxGeometry>
        </mxCell>
      </root>
    </mxGraphModel>
  </diagram>
</mxfile>
